<svg xmlns="http://www.w3.org/2000/svg" xmlns:xlink="http://www.w3.org/1999/xlink" width="1080" zoomAndPan="magnify" viewBox="0 0 810 809.999993" height="1080" preserveAspectRatio="xMidYMid meet" version="1.0"><path fill="#fd9102" d="M 107.972656 267.824219 C 91.890625 270.734375 79.636719 282.445312 75.671875 298.6875 C 75.214844 300.5625 75.109375 304.882812 74.945312 328.554688 L 74.757812 356.230469 L 73.984375 358.136719 C 73.5625 359.183594 72.582031 360.765625 71.804688 361.644531 C 71.027344 362.527344 66.496094 366.175781 61.734375 369.753906 C 56.96875 373.332031 52.585938 376.765625 51.996094 377.382812 C 51.40625 378 50.449219 379.417969 49.871094 380.53125 C 49.019531 382.179688 48.792969 383.074219 48.667969 385.332031 C 48.582031 386.898438 48.691406 388.8125 48.914062 389.722656 C 49.761719 393.148438 50.925781 394.457031 61.535156 403.894531 C 68.042969 409.683594 72.003906 413.460938 72.742188 414.578125 C 74.9375 417.898438 74.925781 417.707031 74.933594 444.472656 C 74.933594 458.644531 75.078125 469.59375 75.273438 470.980469 C 76.777344 481.566406 82.390625 491.105469 90.863281 497.488281 C 94.449219 500.191406 100.226562 502.992188 104.402344 504.050781 C 108.351562 505.050781 114.09375 505.65625 118.292969 505.511719 L 121.332031 505.40625 L 121.417969 492.160156 L 121.507812 478.914062 L 117.835938 478.914062 C 115.820312 478.914062 113.347656 478.757812 112.347656 478.570312 C 108.226562 477.792969 104.671875 475.03125 102.808594 471.148438 L 101.757812 468.957031 L 101.558594 442.632812 C 101.339844 414.171875 101.378906 414.761719 99.417969 408.925781 C 97.09375 402 93.257812 396.492188 86.683594 390.640625 C 84.671875 388.847656 83.03125 387.28125 83.039062 387.164062 C 83.046875 387.042969 84.277344 386.03125 85.773438 384.917969 C 93.144531 379.429688 98.507812 371.035156 100.78125 361.421875 C 101.304688 359.199219 101.390625 355.964844 101.5625 331.257812 L 101.757812 303.582031 L 102.855469 301.332031 C 104.152344 298.683594 106.59375 296.308594 109.351562 295.011719 C 111.011719 294.230469 111.734375 294.121094 116.269531 293.96875 L 121.332031 293.792969 L 121.417969 280.546875 L 121.507812 267.300781 L 116.019531 267.332031 C 112.980469 267.347656 109.390625 267.566406 107.972656 267.824219 M 160.988281 280.558594 L 160.988281 293.902344 L 165.964844 294.015625 C 170.53125 294.125 171.105469 294.207031 172.886719 295.042969 C 175.601562 296.3125 178.234375 298.90625 179.421875 301.480469 L 180.394531 303.582031 L 180.59375 330.582031 C 180.796875 358.808594 180.816406 359.105469 182.398438 364.558594 C 184.738281 372.621094 189.894531 379.996094 196.859375 385.234375 L 199.484375 387.210938 L 197.535156 388.925781 C 190.570312 395.035156 187.605469 398.644531 184.761719 404.476562 C 182.644531 408.8125 181.363281 413.316406 180.90625 418.027344 C 180.726562 419.863281 180.574219 431.859375 180.570312 444.679688 C 180.5625 470.304688 180.597656 469.789062 178.488281 472.972656 C 177.109375 475.054688 174.671875 476.976562 172.210938 477.921875 C 170.664062 478.515625 169.324219 478.703125 165.628906 478.832031 L 160.988281 479 L 160.988281 505.574219 L 164.328125 505.574219 C 172.363281 505.574219 178.71875 504.304688 184.488281 501.550781 C 188.863281 499.460938 191.488281 497.667969 194.851562 494.46875 C 200.152344 489.425781 204.226562 482.636719 206.125 475.667969 L 207.035156 472.332031 L 207.214844 445.667969 C 207.398438 419.015625 207.398438 419.003906 208.15625 417.148438 C 208.574219 416.128906 209.484375 414.582031 210.179688 413.714844 C 210.875 412.847656 215.675781 408.386719 220.847656 403.800781 C 230.261719 395.453125 231.855469 393.765625 232.957031 390.957031 C 234.640625 386.675781 233.695312 381.328125 230.621094 377.726562 C 230.097656 377.113281 225.496094 373.464844 220.394531 369.625 C 214.886719 365.480469 210.679688 362.066406 210.042969 361.21875 C 209.453125 360.4375 208.617188 358.917969 208.1875 357.84375 L 207.402344 355.894531 L 207.214844 328.21875 L 207.03125 300.542969 L 206.128906 297.238281 C 202.859375 285.214844 194.464844 275.332031 183.484375 270.585938 C 177.972656 268.203125 174.882812 267.585938 167.484375 267.386719 L 160.988281 267.210938 Z M 664.457031 302.757812 C 661.878906 303.144531 658.003906 304.996094 655.957031 306.820312 C 653.769531 308.765625 651.855469 311.777344 650.988281 314.640625 C 650.421875 316.507812 650.3125 317.578125 650.429688 320.222656 C 650.566406 323.335938 650.867188 324.457031 652.578125 328.21875 C 652.664062 328.40625 643.941406 337.339844 633.199219 348.078125 L 613.667969 367.601562 L 611.972656 366.382812 C 609.773438 364.804688 605.921875 363.035156 602.570312 362.066406 C 600.261719 361.398438 599.183594 361.296875 594.507812 361.320312 C 589.664062 361.347656 588.800781 361.445312 586.132812 362.253906 C 582.71875 363.292969 581.074219 364.082031 576.023438 367.101562 L 572.390625 369.273438 L 571.128906 368.300781 C 562.941406 361.964844 551.472656 352.953125 551.347656 352.753906 C 551.261719 352.617188 551.496094 351.59375 551.871094 350.484375 C 552.800781 347.742188 552.621094 342.304688 551.511719 339.449219 C 549.878906 335.261719 545.933594 331.316406 541.761719 329.710938 C 539.355469 328.78125 534.621094 328.464844 531.9375 329.054688 C 524.539062 330.679688 518.738281 337.953125 518.738281 345.601562 C 518.738281 353.371094 524.574219 360.527344 532.257812 362.171875 C 536.179688 363.015625 541.242188 362.054688 544.800781 359.796875 L 546.363281 358.808594 L 555.261719 365.789062 C 560.152344 369.628906 564.703125 373.210938 565.371094 373.75 L 566.585938 374.730469 L 565.460938 376.296875 C 563.695312 378.757812 561.683594 383.324219 561.109375 386.171875 C 559.363281 394.878906 561.628906 403.492188 567.332031 409.8125 L 569.183594 411.863281 L 555.691406 425.15625 C 546.910156 433.808594 542.023438 438.390625 541.691406 438.289062 C 541.410156 438.199219 540.214844 437.722656 539.035156 437.226562 C 531.398438 434.035156 521.804688 437.769531 517.976562 445.429688 C 514.566406 452.242188 515.902344 459.976562 521.382812 465.144531 C 524.109375 467.714844 526.382812 468.925781 529.882812 469.660156 C 533.847656 470.492188 538.230469 469.75 541.828125 467.636719 C 544.011719 466.355469 547.320312 462.675781 548.433594 460.285156 C 550.523438 455.808594 550.582031 450.640625 548.597656 446.21875 L 547.648438 444.097656 L 575.414062 416.332031 L 579.898438 418.589844 C 582.421875 419.863281 585.558594 421.152344 587.082031 421.546875 C 590.734375 422.492188 596.121094 422.734375 599.570312 422.109375 C 601.054688 421.839844 602.308594 421.652344 602.355469 421.695312 C 602.402344 421.734375 604.554688 427.070312 607.132812 433.550781 L 611.824219 445.332031 L 609.804688 447.355469 C 608.429688 448.742188 607.34375 450.28125 606.378906 452.222656 L 604.96875 455.066406 L 604.96875 463.605469 L 606.394531 466.480469 C 609.417969 472.589844 615.109375 476.210938 621.675781 476.210938 C 626.289062 476.210938 630.011719 474.621094 633.511719 471.15625 C 640.238281 464.488281 640.175781 454.132812 633.363281 447.34375 C 630.136719 444.132812 626.089844 442.472656 621.445312 442.464844 L 619.023438 442.460938 L 609.617188 418.710938 L 611.550781 417.460938 C 616.386719 414.335938 621.261719 408.371094 623.296875 403.089844 C 624.964844 398.761719 625.5 395.410156 625.296875 390.511719 C 625.042969 384.363281 623.328125 379.050781 620.152344 374.589844 L 619.046875 373.035156 L 638.679688 353.402344 C 651.425781 340.65625 658.425781 333.886719 658.640625 334.101562 C 658.820312 334.28125 659.996094 334.816406 661.25 335.289062 C 673.882812 340.042969 686.695312 328.75 683.59375 315.59375 C 682.222656 309.789062 677.804688 305.023438 672.300781 303.421875 C 669.515625 302.609375 666.917969 302.390625 664.457031 302.757812 M 663.523438 311.203125 C 656.597656 314.332031 656.238281 323.90625 662.910156 327.546875 C 666.3125 329.402344 670.839844 328.746094 673.59375 326 C 678.054688 321.546875 676.785156 313.929688 671.136719 311.300781 C 668.90625 310.261719 665.695312 310.21875 663.523438 311.203125 M 532.871094 336.933594 C 529.785156 338.089844 527.597656 340.410156 526.796875 343.386719 C 525.9375 346.574219 527.476562 350.90625 530.164062 352.859375 C 532.171875 354.316406 534.109375 354.851562 536.574219 354.628906 C 541.378906 354.191406 544.703125 350.503906 544.714844 345.601562 C 544.722656 341.984375 542.871094 338.992188 539.574219 337.285156 C 538.132812 336.542969 534.441406 336.347656 532.871094 336.933594 M 250.171875 363.902344 L 249.414062 364.710938 L 249.414062 418.835938 L 251.773438 418.835938 L 251.773438 397.914062 C 251.773438 386.402344 251.890625 376.988281 252.03125 376.988281 C 252.171875 376.988281 261.246094 386.203125 272.195312 397.464844 C 283.148438 408.726562 292.78125 418.371094 293.605469 418.894531 C 294.457031 419.4375 295.578125 419.851562 296.199219 419.851562 C 298.488281 419.851562 298.351562 421.652344 298.351562 391.8125 L 298.351562 364.835938 L 295.988281 364.835938 L 295.988281 385.257812 C 295.988281 397.449219 295.863281 405.675781 295.675781 405.675781 C 295.507812 405.675781 286.3125 396.425781 275.25 385.121094 C 264.1875 373.816406 254.769531 364.328125 254.320312 364.035156 C 253.875 363.742188 252.929688 363.410156 252.21875 363.296875 C 251.144531 363.125 250.804688 363.226562 250.171875 363.902344 M 335.335938 363.523438 C 330.25 364.265625 324.417969 366.554688 320.507812 369.34375 C 317.789062 371.28125 313.996094 375.300781 312.398438 377.929688 C 307.679688 385.699219 307.273438 395.480469 311.324219 403.820312 C 314.960938 411.300781 322.109375 416.898438 331.257812 419.417969 C 334.351562 420.269531 335.121094 420.347656 340.539062 420.339844 C 345.5625 420.335938 346.851562 420.226562 349.183594 419.589844 C 359.25 416.855469 367.058594 410.378906 370.464844 401.949219 C 371.90625 398.382812 372.339844 395.503906 372.179688 390.65625 C 372.054688 386.878906 371.890625 385.859375 371.011719 383.335938 C 368.535156 376.203125 363.386719 370.488281 356.230469 366.929688 C 349.722656 363.695312 342.378906 362.496094 335.335938 363.523438 M 522.957031 363.691406 C 510.097656 365.988281 500.667969 374.117188 497.777344 385.394531 C 496.875 388.917969 496.898438 395.367188 497.824219 399.261719 C 499.136719 404.757812 502.566406 410.222656 506.851562 413.628906 C 509.550781 415.777344 514.933594 418.339844 518.914062 419.375 C 526.738281 421.410156 538.769531 420.628906 546.363281 417.597656 C 548.609375 416.703125 552.328125 414.609375 553.746094 413.449219 C 554.410156 412.90625 554.457031 412.703125 554.136719 411.785156 C 553.9375 411.207031 553.722656 410.738281 553.664062 410.738281 C 553.605469 410.738281 552.75 411.277344 551.757812 411.9375 C 547.6875 414.652344 541.800781 416.917969 536.386719 417.863281 C 533.609375 418.34375 527.734375 418.070312 525.003906 417.332031 C 521.1875 416.296875 518.753906 414.871094 515.832031 411.953125 C 512.632812 408.757812 510.8125 405.417969 509.5625 400.445312 C 508.476562 396.136719 508.476562 387.433594 509.5625 382.742188 C 512.101562 371.761719 519.203125 365.535156 529.199219 365.519531 C 535.335938 365.511719 542.679688 367.289062 548.601562 370.222656 L 552.464844 372.132812 L 552.8125 371.136719 C 553.316406 369.691406 553.328125 369.707031 551.378906 368.589844 C 543.894531 364.308594 531.484375 362.171875 522.957031 363.691406 M 377.671875 365.089844 C 377.679688 365.230469 382.917969 372.226562 389.316406 380.636719 L 400.949219 395.933594 L 400.953125 406.121094 C 400.957031 411.722656 401.050781 416.875 401.167969 417.570312 L 401.375 418.835938 L 411.074219 418.835938 L 411.074219 394.988281 L 422.203125 380.167969 C 428.324219 372.015625 433.335938 365.230469 433.339844 365.089844 C 433.347656 364.953125 432.601562 364.835938 431.6875 364.835938 L 430.027344 364.835938 L 419.925781 378.421875 C 414.367188 385.894531 409.6875 392 409.519531 391.996094 C 409.355469 391.988281 404.613281 385.875 398.984375 378.410156 L 388.746094 364.835938 L 383.203125 364.835938 C 380.15625 364.835938 377.667969 364.953125 377.671875 365.089844 M 445.414062 365.507812 C 444.949219 365.875 444.28125 366.824219 443.9375 367.617188 C 443.347656 368.964844 443.300781 370.441406 443.210938 390.96875 C 443.101562 415.25 443.144531 415.875 445 417.730469 L 446.113281 418.84375 L 468.671875 418.753906 L 491.230469 418.667969 L 491.230469 416.644531 L 473.511719 416.558594 C 461.402344 416.5 455.566406 416.351562 455.070312 416.097656 C 453.527344 415.300781 453.4375 414.613281 453.328125 402.722656 L 453.230469 391.5 L 482.667969 391.5 L 482.457031 389.304688 L 467.859375 389.21875 L 453.261719 389.128906 L 453.261719 380.144531 C 453.261719 370.484375 453.460938 368.972656 454.886719 367.851562 C 455.683594 367.226562 456.429688 367.199219 472.882812 367.199219 L 490.050781 367.199219 L 490.050781 364.835938 L 468.15625 364.835938 C 446.847656 364.835938 446.242188 364.855469 445.414062 365.507812 M 634.835938 391.304688 C 634.835938 405.859375 634.929688 418.011719 635.042969 418.304688 C 635.226562 418.78125 636.890625 418.835938 650.367188 418.835938 C 661.980469 418.835938 666.066406 418.726562 667.96875 418.363281 C 680.636719 415.929688 690 405.445312 690.757812 392.835938 C 691.472656 380.984375 684.097656 370.96875 671.457031 366.628906 C 666.972656 365.09375 663.800781 364.839844 648.757812 364.839844 L 634.835938 364.835938 Z M 703.605469 365.503906 C 703.136719 365.871094 702.46875 366.824219 702.125 367.617188 C 701.535156 368.964844 701.488281 370.441406 701.398438 390.96875 C 701.289062 415.242188 701.332031 415.875 703.1875 417.730469 L 704.296875 418.835938 L 749.628906 418.835938 L 749.523438 417.742188 L 749.417969 416.644531 L 731.699219 416.554688 C 719.636719 416.496094 713.75 416.351562 713.257812 416.097656 C 711.714844 415.304688 711.625 414.613281 711.515625 402.722656 L 711.417969 391.5 L 740.8125 391.5 L 740.8125 389.136719 L 711.449219 389.136719 L 711.449219 380.148438 C 711.449219 370.785156 711.652344 369.082031 712.886719 367.964844 C 713.492188 367.417969 714.929688 367.355469 730.960938 367.199219 L 748.371094 367.03125 L 748.371094 365.007812 L 726.417969 364.917969 C 704.945312 364.835938 704.441406 364.847656 703.605469 365.503906 M 335.832031 366.039062 C 325.945312 368.179688 320.128906 377.917969 320.222656 392.175781 C 320.308594 406.09375 325.886719 415.375 335.535156 417.648438 C 338.367188 418.316406 343.1875 418.269531 345.964844 417.542969 C 355.570312 415.035156 361.386719 404.097656 360.691406 389.851562 C 360.277344 381.375 358 375.222656 353.664062 370.863281 C 349.113281 366.292969 342.683594 364.550781 335.832031 366.039062 M 644.960938 391.871094 L 644.960938 416.542969 L 653.148438 416.382812 C 662.296875 416.203125 663.992188 415.917969 668.246094 413.878906 C 673.125 411.53125 676.730469 406.832031 678.167969 400.949219 C 679.003906 397.511719 679.472656 391.988281 679.234375 388.292969 C 678.625 378.691406 675.332031 372.761719 668.859375 369.589844 C 664.878906 367.640625 661.863281 367.199219 652.511719 367.199219 L 644.960938 367.199219 Z M 588.996094 369.550781 C 582.167969 371.394531 577.195312 375.507812 574.085938 381.882812 C 572.425781 385.28125 571.917969 388.332031 572.152344 393.535156 C 572.300781 396.761719 572.496094 397.859375 573.316406 399.964844 C 575.9375 406.71875 581.9375 412.144531 588.769531 413.9375 C 594.21875 415.371094 599.398438 414.828125 604.652344 412.273438 C 607.519531 410.878906 607.867188 410.601562 608.796875 408.972656 C 611.832031 403.65625 613.285156 395.621094 612.550781 388.191406 C 612.035156 382.917969 611.191406 379.777344 609.277344 375.988281 C 607.855469 373.164062 607.480469 372.6875 606.015625 371.835938 C 605.109375 371.308594 603.210938 370.480469 601.796875 369.996094 C 598.246094 368.78125 592.585938 368.582031 588.996094 369.550781 M 122.65625 382.867188 C 121.125 383.53125 119.191406 385.347656 118.4375 386.828125 C 115.816406 391.964844 119.277344 397.960938 125.167969 398.492188 C 127.386719 398.695312 129.292969 398.03125 131.25 396.375 C 133.582031 394.410156 134.636719 390.332031 133.515625 387.644531 C 132.828125 386.003906 130.65625 383.726562 129.09375 383.015625 C 127.484375 382.285156 124.167969 382.207031 122.65625 382.867188 M 142.242188 383.019531 C 140.527344 383.800781 138.277344 386.328125 137.757812 388.058594 C 136.296875 392.9375 139.597656 397.867188 144.726562 398.472656 C 145.59375 398.578125 146.945312 398.488281 147.726562 398.277344 C 151.007812 397.390625 153.902344 393.757812 153.898438 390.535156 C 153.890625 387.515625 151.515625 384.0625 148.621094 382.851562 C 147.046875 382.195312 143.878906 382.277344 142.242188 383.019531 M 162.84375 382.628906 C 162.035156 382.824219 160.046875 384.238281 159.191406 385.222656 C 157.425781 387.261719 156.859375 390.179688 157.683594 392.980469 C 158.261719 394.933594 161.109375 397.738281 163.050781 398.261719 C 164.808594 398.738281 167.601562 398.511719 169.011719 397.78125 C 171.691406 396.398438 173.585938 393.371094 173.578125 390.488281 C 173.566406 385.863281 170.039062 382.339844 165.519531 382.425781 C 164.417969 382.449219 163.214844 382.539062 162.84375 382.628906 M 530.003906 444.335938 C 526.476562 445.640625 524.140625 449.0625 524.148438 452.925781 C 524.167969 462.421875 536.59375 465.578125 541.195312 457.253906 C 542.03125 455.738281 542.1875 455.085938 542.183594 453.09375 C 542.171875 449.296875 540.453125 446.433594 537.175781 444.761719 C 535.371094 443.839844 531.90625 443.636719 530.003906 444.335938 M 618.628906 450.742188 C 616.535156 451.386719 614.46875 453.25 613.382812 455.472656 C 612.582031 457.109375 612.492188 457.621094 612.632812 459.769531 C 612.820312 462.613281 613.648438 464.476562 615.417969 466.027344 C 617.578125 467.925781 618.546875 468.273438 621.675781 468.277344 C 624.199219 468.28125 624.734375 468.171875 626.121094 467.355469 C 629.335938 465.464844 631.023438 462.242188 630.691406 458.613281 C 630.152344 452.664062 624.453125 448.949219 618.628906 450.742188 " fill-opacity="1" fill-rule="evenodd"/></svg>